<svg id="Layer_1" data-name="Layer 1" xmlns="http://www.w3.org/2000/svg" viewBox="0 0 841.89 237.67"><defs><style>.cls-1{fill:#fff;}.cls-2{fill:#010101;}.cls-3{fill:#f08121;}</style></defs><path class="cls-1" d="M626.1,189.66c-2.41,2.59-5.46,4.18-6,9.56-.1,1.05-1.32,1.29-2.15,1.25-3.56-.2-4.63-2.64-3.49-8.28.22-1.12.5-2.2-.38-2.44-.56-.16-1.65.76-1.21-1.17a1.85,1.85,0,0,1,1.56-1.44c1.4-.45,2.71-1.08,2.59-3.82-.09-1.92-1.73-2.93-3.64-2.36,0,.28-.14.71-.06.82.58.79,2.16.08,1.76,2.28-.26,1.45-1.47,1.59-1.71,1.05-.62-1.35-3.3,1.08-2.46-2.76a12,12,0,0,0,.21-4.78c-.28-1.54-.91-2.28-2-2.22s-1.46,1.44-2.15,2.31-1.64,7-3.33,2.07c-.22-.64-.9-.25-1.33.37a6.59,6.59,0,0,0-1.07,3.84c0,1.19.45,1.07,1.2.7,2.63-1.31,4-.3,4.15,3.9.07,2.43,1,4.48,1.62,6.82-1.17-1-2.47-2.1-4.06.51-1.57-2.37-2.11-1-2.6,2.09-.18,1.13-1,.94-1.24,0a6.06,6.06,0,0,1,1.45-6c.7-.79,1.84-1.91,1.23-3.38-.43-1-1.28-1.16-2.28-.83-1.78.58-3.35,2.41-4.8,3.87s-.12,2,.76,2c1.12.08,2,.41.91,2.66a5.64,5.64,0,0,1-.66,1c-1.09-1.43-2.16-2.89-3.19-4.39-.66-.95-.34-1.84.44-3,1.4-2.08,1.75-4.12.29-5.59a3.71,3.71,0,0,1-.61-2.55c-.1-4-.34-3.94-2.77-1.58a4,4,0,0,1-3.52,1.24c-.62-.13-1.55.26-1.48-1.18,0-1.18.89-1.18,1.4-1.69,1.3-1.29,1.29-1.32,1.18-5.1-1.3,5.75-4.22,4.58-7.32,7.61,2.16-4.22,2.11-6.23-.17-6.38-3.22-.2-3.89,3.71-4.62,7.14-1-.11-.91-1.11-.91-1.95,0-1.7-.47-2.63-1.67-2.44s-1.68,1.25-2,2.75c-.22,1-.26,2.42-1.11,2.72s-.18-2.11-.45-1.75c-1.56,2-2.9.55-4.27,1.24-2,1-1.61,3.62-1.68,6.82-2.11-4.6-4.31-3.45-6.68.77-.7-2.83.81-4.9,1.49-7.07,1.75-5.6,1.44-7.12-2.3-6.54-3.51.54-6.67-1.2-10.38.69-1.52.78-2-2.17-4-1.63-4,1.09-4.41,1.23-5.12,7.1-.07.6-.19,1.19-.29,1.86-1.5-2.78-1.55-2.8-.18-6.4.69-1.85.75-3.28-.6-3.1-2.56.34-4.67-1.59-7.39-.42-.74.31-1.82.22-1.9-1-.3-4.18-2.37-1.34-3.1-.25-2.16,3.25-2.12.82-2-1.05s.21-3.52-1-4.08c-.75.62-.78,1.63-1.08,2.46-1.21,3.32-2.33,7-4.53,2.8-.53-1-1.42-.34-2.18.43-3.63,3.69-6.58,2.76-9.55.74-1.87-1.26-3.74-3.13-6.54-.72-1,.89-2.13.38-2.41-1.51-.17-1.18-.23-2.53-1.33-2.81a6,6,0,0,0-.31,1.25c0,1.36.76,3.11-.58,3.92-.93.56-2-.76-2.14-2.25-.2-2.14-.55-1.93-1.87-.75-1.1,1-3.25,2.59-3.52.47-.31-2.36.29-5.65,2.8-7.16,1.15-.68,2.95-.27,3.16-3.16.17-2.53-1.27-3.34-2.49-4.17-1.76-1.19-3.58-1.62-5.75.9s-4.08.7-5.86.51a84.51,84.51,0,0,0-10.68-.12c-1.2,0-2.4-.27-3.4-.18-3.27.3-6.57-.16-10,1.85a1.63,1.63,0,0,0-.85,1.72c.1,1.06.57,1.83,1.28,1.75,3.32-.38,6.27,1.65,9.94-.77,2.7-1.78,5.07.15,7.65.12,1.13,0,1.34,2.25,1.67,3.81a1.94,1.94,0,0,1-.71,2.23c-.69.43-1.23.12-1.26-.89-.1-2.78-.72-3.26-2.31-.71-.22.35-.93.57-1.1.34-1.95-2.74-3.33-.14-5.28,2.32-3.24,4.08-1.82-1.86-2.88-3.12-1.19,2.27-2.23,4.77-3.85,6.4-.62.63-1.35,1.18-2,.81-.39-.22-.42-.92-.19-1.5,1.37-3.41.63-3.78-1.43-2.49-.6.38-.87-.21-1-1l-.08.09c2.13-3.9,1.16-9.9-1.8-9.52-3.17.4-6.44-.63-9.53,5.42-1.09,2.14-3.45,3.4-4.31,6.81-.33,1.28-1.5,3-2.52,2.2-1.49-1.11.34-1.92.7-2.9.67-1.78,0-2-.92-2s-1.21-1.12-1.14-2.37a2,2,0,0,1,1.5-2.11c.86-.16,1.87.12,2.19-1.91.16-1-.23-1.75-.85-1.76-1.1,0-2.45-.89-3.3,1-.58,1.32-.5,2.48-1.78,1.87-.8-.38-1.22,1.14-1.39,2.17-.28,1.65-.55,3.44.67,4,.82.41,1.85.87,1.06,2.55-.93,2-2.6,1.84-3.91,2.85-.9.7-1.64-.06-1.57-1.41.11-2.05-.57-3.91.13-6,.52-1.58.31-2.26-.54-2.63-.52-.23-1.05-.76-1.63.16s-.21,2-.18,3,.22,1.93.3,2.91-.46,2.35-.89,1.67c-1.08-1.69-3.46-.23-4-3-.25-1.34-.78-1.26-1.53-.24-.51.69-1.57,1.22-.59,2.28a1.11,1.11,0,0,1,.11,1.7c-.29.34-1,.56-1.11.34-1.63-3.66-4.7-.6-7-.61-1.91,0-3.5-2.83-6.1.24-.49.57-2.56-2.1-3.71-3.59a2,2,0,0,1,1.05-2.36.29.29,0,0,1,.28.07c3.59,4.33,6-1.76,9.16-6-.67,4.77,1.62,5.47,2.92,7.28,1.17,1.63,2.54-.88,3.77-2.1.59-.58,1.1-2.19.91-2.15-1.94.42-1.69-3.22-3.52-3.23-3.39,0-6.56-2.34-10.22,2.62-.77,1-1.47.12-2-.66-1.15-1.8-3.12-2.1-4.49-.86-2.76,2.53-4.91,2.19-7.27,1.32-3-1.08-6.34.13-9.52.23-1.22,0-3.18,1.15-1.75-2.82a2.21,2.21,0,0,0-.67-2.45,4.41,4.41,0,0,1-1.07-3.09c-.21-3.31,1.89-8.44-1.88-9,1.42-5.43-2.16-4.76-3.45-6.67-1.78-2.63-2.39-4.64-.6-8.6a24,24,0,0,0,1.94-5.55c.35-1.9.12-2.72-1.08-3.45-2-1.23-3.57-3.2-2.39-7.93.68-2.77-.88-3.16-2.37-3.08-1,.06-2.38.13-2.08-1.64.35-2.13,1.77-2,2.78-1.75.81.18,1.81,1.11,2.13-1.08s-1.18-1.7-2.05-1.52c-2.49.52-5,3-7.54,2.5-.92-.18-2.21-.63-1.51-1.73,2.5-3.9-.72-6,.53-9.48a1.5,1.5,0,0,0-1.21-2.09c-1.17-.11-.63-1.5-.08-2.21,2.75-3.58,1.51-6.67.7-9.23-.58-1.85-.55-2.49.73-3.86,2-2.13,3.72-4.11,3.15-8.32-.28-2,2.29-4,3.46-6.19.45-.85.88-.72.57-2-.69-2.81-1.78-5.68.42-9.33a1.72,1.72,0,0,0,0-1.16c-3-2.67-.25-8.9-1.62-12.6-.45-1.23.12-2.53,1.12-2.61,4.38-.34,8.47-5.32,12.94-5.81,3.85-.42,7.51-.53,10.88,1.13,1.06.52,2.15.9,3.39-.44,1-1.08,2.47-1.47,2.85-.82,2.61,4.44,6.86-.2,9.94.82,4.93,1.62,10.3,1.3,15.42.76,7-.73,13.76-.08,20.64-.3,4.95-.17,10-.7,14.93-1.05,7.37-.51,14.91-1.8,22.19-1.77,10.73,0,21.6-.94,32.39-1.47,5.82-.29,11.77-1.23,17.48-.86,6.89.45,14-.89,20.9-.29,5.27.46,10.85-.77,16.26-1,5.14-.21,10.23,0,15.36-.12,4.44-.09,8.87.08,13.38-.67,2.5-.42,4.74.3,7.1.32,4.34,0,9.12-2.43,13-.94,6.32,2.39,13.66-1.51,19.85,1.18a4.11,4.11,0,0,0,3.46-.3c5.17-2.81,9.34,0,13.92.44,1.21.11,2,.82,3.52-.41,1.32-1.09,3.28-1.8,4.35-1.14,2.28,1.41,5.11-.46,7.29.87,3.57,2.18,8.28-1.41,11.75,1.26.31.23,1-.14,1.44-.49,2.74-2.12,5.07-1.25,7.4-.47,2.59.86,4.7,3.34,8.2.32,1.3-1.12,3.29.35,4.94.72,4.77,1,9.5,2.3,14.76.45,1.53-.54,2.48.88,3.71,1.33,1.61.59,2.68,3.89,5.06.19.1-.15.56,0,.75.23,2.91,3.13,6.78,1.79,10.43,1.44,3.84-.37,7.05,1.95,10.78,2,4.35.07,8.38,1.58,12.55,2.35,3.08.56,6.73-.81,9.3,1.92,1.11,1.19,2.65.17,4,.11,4.73-.21,9,1.5,13.44,2.54,5.73,1.35,11.89.67,17.44,2.79,2.42.93,4.8,1.79,6.25,4.79.36.74.79,1.08,1.4.83,4-1.61,7.47,0,10.92.81a112.25,112.25,0,0,0,14.3,2.24c1.94.18,2.67,2.52,2.21,5.6-.83,5.58-1.69,11.09.08,15.74a6,6,0,0,1-.16,3.46c-1.47,3.68-1.1,6.83-.51,9.84.68,3.51-.68,5.45-2.77,6.78-5.79,3.67-11.17,4.21-16.46,2.07s-11.15-2.21-16.92-2.41c-2.39-.09-4.12,1.56-4.24,5.87s-1.59,9,.77,12.29c.77,1.06-.6,3.43-1.15,5.11-.82,2.5-1,3.94.66,5.23,2.88,2.24,5.27,5.55,9.31,4.55,1.34-.33,2.37.18.77,3.1a3.94,3.94,0,0,0,1.06,5.41c2.37,1.95.89,3.83-.6,5.69-2.08,2.6-2.37,5.29-.45,6.59a1.85,1.85,0,0,1-.28,3.15c-3.2,1.67-2.94,3.54-1.48,6.07.24.43-.09,1.7-.21,2.59s-.07,1.86.39,1.74c2.93-.73,2.53,4.11,3.75,5,2.48,1.73,3.61,5.09,5.55,7.33s2.19,1.8,3.37-3.07c-.15-.09-.31-.31-.45-.25-.83.36-1.79,2.85-2.44.6a2.53,2.53,0,0,1,1.24-2.86c1.4-1,2.55-.8,3.18,1.06.43,1.29-.48,2.9-.42,4.13,1.28.74,1.84-2.06,2.93-1.72a10.56,10.56,0,0,1-1.24,5.6c-.75,1.6-1.42,2.91-.9,4.53a2.69,2.69,0,0,1,.13,1.18c-3.92,4.6,0,5.27.5,7.64a5,5,0,0,1,.38,1.43c-.2,3.09-6.71,14.52-8.24,13.83-2-.87-4.6,1.51-6.09-1.48-1.06-2.13-3.2-2.16-5.09-.67-3.66,2.9-5.3.55-6.65-3-.11-.29-.4-.39-.64-.62-.84,5.66-.84,5.66-5.69,5.74,2.48-3.38,2.32-4.69-.39-6.2s-5.37-1-8.3,1c-.73.52-1.21.53-1.46-.3-1-3.35-3.46-2.63-5.58-2.69a2.47,2.47,0,0,1-2.3-1c-.69-1-1.35-4.12-1.93-2.75-.87,2-4,2.68-2.89,6.42.1.37-2.06,3.26-3.32,4.3-.89.72-.82-1-.69-2,.26-2-.27-3.36-1.37-3.93-.29-.15-1.05.44-1.35,1-1.27,2.26.38,2.93.55,4.7-1.21.9-1.78.14-2.32-1-2.27-4.66-4.65-8.7-10-6.15-.95.46-2.12-2.93-3.31-4.73-.72,1.51-.29,2.84-.43,4.17-.51,4.89-3.57,8.07-6.25,6.21-1.32-.92-2.49.69-3.71,1-1.8.4-3,.12-2.13-3.28.33-1.32,1-3.2-.4-3-1.14.21-2.91-.41-3.39,3-.16,1.14,0,3.29-1.42,2.4a2.16,2.16,0,0,1-.78-3.23c2.71-3.84,1.52-5.66-.14-7.58-.66-.76-.62-2.6-1.77-2.69a1.66,1.66,0,0,0-.47,1.91c2.13,2.84.54,6.7-.47,10.2-1.17,4-3,2.35-4.57,2.15-1.82-.24-.8-1.66-.15-3.41s.64-4.11,1.57-6.06a2.4,2.4,0,0,0,.2-.88c.08-1.75-4.74-6.65-6-6.12a2.36,2.36,0,0,0-1.27,1.31c-1.39,2.9-2.56,2.41-3.09.15-.66-2.85-2.08-3.62-4.09-3.11a2.79,2.79,0,0,1-2.27-.07c-.82-.52-1.57-.89-1.78,1.51-.08.91-.43,2.36-1.38,2.23s-.66-1.36-.59-2.43c.06-.73.22-1.79,0-2.1-.83-1.05-.45-6.07-3.32-1.05-1,1.67-2.89,2.38-4,4.68-.53,1.07-1,.12-1.27-.59s-.93-1.21.12-2.43a11.31,11.31,0,0,0,2.64-6.82c-1.86,3.45-4.1,3-5.8,5.57-1.12,1.72-2.42.71-3.53,0a1.18,1.18,0,0,0-1.91.46,3,3,0,0,0-.29,1.64c.25,1.21,1,.84,1.72.4,3.69-2.23,3.8,3.44,5.92,4.7-1.93,4-.21,6.8-.18,10.17,0,2.09-1.26.43-1.88,1.17-.79,1-1.53,1.11-1.26-.55.35-2.19-.57-3.45-.62-5.29,0-1-.24-1.68-1-1.53s-1,1.11-1,2.06c-.08,1.31-.91,2.64-.54,4,.42,1.49-.19,2.32-1.18,2.44s-1.34-.71-1-2.23a17.39,17.39,0,0,0,.55-2.21c.17-2.42.26-4.46-2.12-4-2.57.52-4.1-1.55-4.58-5.48,1.19,1.24,2.28,1,3.39-1,.94-1.65,1.78-3,1.31-5.28a20.14,20.14,0,0,1,.36-7.77c.29-1.39.56-2.7-.43-3.75-1.61,4.89-4.45,9.44-2.6,14.4-1.78-.17-2.21-1.18-2.45-4.68-.11-1.49,1.31-3.89,0-4.35a3.88,3.88,0,0,0-4,1c-1.54,1.81-3.76.06-4.89,4.2-.44,1.61-1.31-.27-1.79-1.08-.86-1.45-1.44-2.33-2.9.68-.9,1.88-2.9,2.78-4.43,4.14-.43-1.74,1.47-2.54,1-3.82s-1.45-.16-2.18,0c-1.88.56-3.13-1.43-5.13-1,2-.52,1.37-3.65,2.77-4.9.37-.32,0-1.67-.35-2.22-.56-.85-.93.19-1.43.84-2.84,3.68-6.25,4.85-8.61,2.66-.92-.87-1.56.12-2.4.52a22.54,22.54,0,0,1-4.16,1.38c-1,.23-2.21.78-2.32,2.11-.51,5.68-3.69,6.9-6.22,9.25Zm-58.68-35.6a29.48,29.48,0,0,0-3.1-.52c-.94-.06-1.9.47-2.16,2.19a9.67,9.67,0,0,0,1.23,6.14c.8,1.56,2-.55,3-1.32,3.46-2.8,8.35-.82,9.06,3.78.15,1-.31,2.81,1,2.21,1-.45,1.23-1.91,1.22-3.1,0-2.44.47-2.48,2.1-2.87,2.94-.72,5.65.9,8.72-1.39.7-.52,1.75-.07,2-1.79s-.7-2.47-1.56-2c-2.22,1.09-3.52-.57-4.81-1.92a2.47,2.47,0,0,0-3.49-.46C575.8,156,571.79,153.54,567.42,154.06Zm35.31,11.48a31.56,31.56,0,0,0,2.83-1.88c3.33-2.77,9.79-3.2,12.68-1.45a5.46,5.46,0,0,0,5.91-.38c2-1.44-.63-2.3-.21-4.06.19-.84,1.77-2.72.27-2.72-4,0-7.76-2-12.13.85-.82.54-2.19,1.78-1.93-.46.5-4.2-1.48-2.68-2.71-2.16-1.68.72-1.63,2.77-1.29,4.44.55,2.75-.16,4.52-2.24,5.51C603.4,163.47,603,164,602.73,165.54Zm62-3.56c-1.26-.54-1.85-1.93-2.52-2.34-2-1.23-3.91-3.75-6.46-2.49-2.84,1.39-5,1.21-6.77-1.27-.85-1.17-1.69.33-2.41,1.1a2.62,2.62,0,0,0-.46,3.09c.91,1.13,1.64,2.89,3.24,2.43,3.64-1.06,6.89-.3,10,1.15C660.92,164.36,662.55,164.07,664.76,162Zm-166.48-5a3.46,3.46,0,0,0-3.49,2.08c-.74,1.35.31,2.53.82,3.53s1.22,1,2.06,0,1.76-1.68,2.82-1.41c3.32.84,6.92-.86,10.39-1.39a1.84,1.84,0,0,0,1.47-1.62c.28-1.26-.31-1.37-.89-1.53-1.19-.32-2.39-.84-3.72.11-3,2.14-5.23-3.47-8.5,1.15C499.17,158,498.68,157.34,498.28,157Zm97,3.32c.63.32,1.49.61,1.91-.48,2.33-6,2.56-.83,3.5.21.51.57.52,2.39,1.57,1.54,1.49-1.22,1.47-3.3,1.65-5.25.15-1.64-.41-3-1.23-2.45-2.38,1.47-4.48.29-6.75,1.36-1,.44-2.26.8-2.45,2.59C593.32,159.44,594.46,159.8,595.29,160.28Z"/><path class="cls-1" d="M626,189.75c3-.2,5.44-2.73,7.88-5.78.79-1,1.78-2.37,2.69-1.14a2.38,2.38,0,0,1,0,2.41c-.69,1.46-1.37,2.41-2.55,1.93-1.88-.75-2.94,2.9-4.68,3.82a8.88,8.88,0,0,0,6,.07c.63-.25,1.42-.88,1.32.25-.34,4,.44,6.47,3.29,6.85-3.75,1.1-7,1.23-9.71-1.26-1.66-1.52-1.83-1.25-2.09,2-.08,1-.42,1.44-.93,1.64-1.86.72-3.39-.35-5.1-.45-.37,0-.45-.84-.22-1.45s.71-.64,1-.37c2.19,1.91,2.26.21,2.19-2.79a33.65,33.65,0,0,1,1-5.78Z"/><path class="cls-1" d="M474.9,171.62a18.8,18.8,0,0,0,1-3.48c.16-4.7.71-5.51,4.44-6.48,2.87-.75,2.91,2.13,2.81,5.24a2.8,2.8,0,0,1-.09.88c-.93,2.31.59,5.25-.91,6.53-1.77,1.53-1.2-2.58-2.29-3.42C478.5,169.82,477,170.4,474.9,171.62Z"/><path class="cls-1" d="M715.74,193.73c-3.09.36-5.55,2.27-7.1,7-.39,1.21-1,2.36-1.93,1.87s-.52-1.86-.36-3c.37-2.87-1.41-6.65-3.21-6.52-1.21.09-2.42.32-2.93-1.42-.8-2.8,1.54-1.44,1.79-2.84a18.78,18.78,0,0,0,.1-2c1.45,2,1.46,6.28,4.63,4.35,1-.6.66,1.19.9,2,.49,1.61,1.34,3,2.61.59C713,188.48,714.12,192.06,715.74,193.73Z"/><path class="cls-1" d="M450.38,169.63c-.1.06-.2.18-.29.18-2,0-2.88,5.56-4.44,4.05-1.08-1.05-1.28-4.24-2.25-6.09-.27-.5-.51-1-1.21-2.48,2.26,1.53,4.12-3.84,5.39-1.29.92,1.84,4.07,1.18,2.72,5.72Z"/><path class="cls-2" d="M52.65,139.81H5.84l7.55-20.66H20l16.49-45H29.64l7.55-20.67H84.83l-7.7,20.67h-6.9l-16.73,45h6.85Zm53.7,0H61.65l7.74-20.66h4.17L63.7,94.57,93.5,74.15H86.41l7.74-20.67h43.11l-7.88,20.67h-6.77l-24,16.38,11.32,28.62h4.3Z"/><path class="cls-2" d="M124.43,109.4q5.08-13.28,19.84-22.4t34-9.13q19.32,0,27.94,8.82t3,23q-5.42,13.65-20.46,22.78A63.72,63.72,0,0,1,155,141.55q-20.24,0-28-9.12T124.43,109.4Zm31.71.13q-5.58,14.4,4.75,14.4,11,0,16.63-14.53,2.59-6.63,1.34-10.3t-6.32-3.66A14.5,14.5,0,0,0,163.2,99,24.71,24.71,0,0,0,156.14,109.53Z"/><path class="cls-2" d="M255.35,139.81H206.8l7.52-18.93h8.22l8.9-22.34H223.2l7.52-18.93h37.73l-6.08,15.08A45,45,0,0,1,272.87,85a34.9,34.9,0,0,1,10.78-5.28,55.24,55.24,0,0,1,12.83-1.18L285.68,105c-.69,0-1.56-.07-2.6-.07q-9.61,0-15.07,1.93a21.53,21.53,0,0,0-8.72,5.21,28.79,28.79,0,0,0-5.43,8.81H263Z"/><path class="cls-2" d="M319,96.43,295.37,94a41.67,41.67,0,0,1,18.26-12.48q10.44-3.59,27.93-3.6,6.45,0,11.4.41a65.34,65.34,0,0,1,8.61,1.21q7.69,1.55,10.34,4.78a11,11,0,0,1,2.6,7.07q0,3.91-3.49,12.17l-7.32,17.37h7.72l-8,18.93H324.5l1.71-4.09q-10.24,5.21-23.77,5.21-12.72,0-16.89-5.58t-1.13-13.22q3.45-8.44,13.71-13.84a48.54,48.54,0,0,1,23.07-5.4q11.73,0,17.4,3l.75-1.8c1.55-3.73,2.36-6.33,2.44-7.82a4.61,4.61,0,0,0-2.2-4A11.9,11.9,0,0,0,333,90.66Q325.44,90.66,319,96.43Zm11.92,28,4.57-11a13.67,13.67,0,0,0-7.93-2.24,13.2,13.2,0,0,0-7.47,2.24,12.91,12.91,0,0,0-4.84,5.83q-1.51,3.66,0,6a5.47,5.47,0,0,0,4.88,2.36A19.56,19.56,0,0,0,330.91,124.42Z"/><path class="cls-3" d="M416,139.81H367.09l8.74-20.66h7.53l19.08-45h-7.59l8.74-20.67h53.49q15.74,0,23.58,1.8,7.68,1.86,10.11,7.39t-.93,13.16a26.49,26.49,0,0,1-9.67,11.66,42.45,42.45,0,0,1-14.1,6.21q8,2.73,10.44,8.44t-.74,13.1A36.38,36.38,0,0,1,463.69,130a44.37,44.37,0,0,1-18.78,7.88Q434.44,139.81,416,139.81Zm21-67.4-6.77,15.77h7.45q7.58,0,10.89-2.18a13,13,0,0,0,4.72-5.71,6.71,6.71,0,0,0,.29-5.46q-1-2.42-10.31-2.42Zm-13.51,31.47-7.3,17h7.53q7.23,0,11.21-1.86a12.28,12.28,0,0,0,6-6.58c1.27-2.93,1.27-5.11,0-6.51s-4.61-2.05-10-2.05Z"/><path class="cls-3" d="M498.46,98.54h-7.31l8.32-18.93h38.86l-12.78,28.68q-3.24,7.26-3,9.74c.12,1.7,1.61,2.54,4.47,2.54a25.1,25.1,0,0,0,11-2.79l8.63-19.24h-8.31l8.46-18.93h39.86l-18.71,41.27h7.28l-8.6,18.93H528.13l3.42-7.63q-16.27,8.74-29.19,8.75-9.24,0-13.28-5.9t3.08-22.21Z"/><path class="cls-3" d="M617.9,139.81H575.25l8.63-18.93h6.23l10.2-22.34h-6.24l8.63-18.93h37.79l-19.06,41.27h5.23Zm-3.81-77.2c1.5-3.27,4.39-5.9,8.7-7.89a32.41,32.41,0,0,1,13.83-3q7.61,0,10.84,3.11t1,7.69q-2.26,4.91-8.36,7.76a31.13,31.13,0,0,1-13.51,2.92q-7.47,0-11.2-2.67T614.09,62.61Z"/><path class="cls-3" d="M669.74,139.81H626.59l8.78-18.93h6.42l22.54-48.47h-6.46l8.78-18.93h38.14l-31.68,67.4h5.54Z"/><path class="cls-3" d="M780.65,120.88l-9.22,18.93h-39l1.94-4a53.41,53.41,0,0,1-22.59,5.15q-12.72,0-18.85-7.76t.68-22.22q7.35-15.57,20.52-24.08a51.94,51.94,0,0,1,28.48-8.38q11.28,0,16.92,5l5.31-11H757l9.08-18.93h39.46l-32.75,67.4Zm-33.49-11.42q2.72-5.64,1.91-9.43t-6-3.72q-10.69,0-17.24,13.71-2.7,5.66-1.83,9.31t6,3.73a15.82,15.82,0,0,0,9.3-3.29Q743.78,116.47,747.16,109.46Z"/></svg>